<svg xmlns="http://www.w3.org/2000/svg" viewBox="0 0 500 500" width="100%" height="100%">
  <defs>
    <filter id="neon-glow" x="-20%" y="-20%" width="140%" height="140%">
      <feGaussianBlur stdDeviation="3.5" result="blur" />
      <feMerge>
        <feMergeNode in="blur" />
        <feMergeNode in="blur" />
        <feMergeNode in="SourceGraphic" />
      </feMerge>
    </filter>
  </defs>

  <rect width="500" height="500" fill="#0A1128" />

  <g filter="url(#neon-glow)">
    
    <circle cx="250" cy="210" r="140" fill="none" stroke="#FF6B00" stroke-width="4" />
    
    <circle cx="250" cy="210" r="60" fill="none" stroke="#FF6B00" stroke-width="4" />

    <line x1="250" y1="70" x2="250" y2="150" stroke="#FF6B00" stroke-width="4" transform="rotate(8.571 250 210)" />
    <line x1="250" y1="70" x2="250" y2="150" stroke="#FF6B00" stroke-width="4" transform="rotate(25.714 250 210)" />
    <line x1="250" y1="70" x2="250" y2="150" stroke="#FF6B00" stroke-width="4" transform="rotate(42.857 250 210)" />
    <line x1="250" y1="70" x2="250" y2="150" stroke="#FF6B00" stroke-width="4" transform="rotate(60.000 250 210)" />
    <line x1="250" y1="70" x2="250" y2="150" stroke="#FF6B00" stroke-width="4" transform="rotate(77.143 250 210)" />
    <line x1="250" y1="70" x2="250" y2="150" stroke="#FF6B00" stroke-width="4" transform="rotate(94.286 250 210)" />
    <line x1="250" y1="70" x2="250" y2="150" stroke="#FF6B00" stroke-width="4" transform="rotate(111.429 250 210)" />
    <line x1="250" y1="70" x2="250" y2="150" stroke="#FF6B00" stroke-width="4" transform="rotate(128.571 250 210)" />
    <line x1="250" y1="70" x2="250" y2="150" stroke="#FF6B00" stroke-width="4" transform="rotate(145.714 250 210)" />
    <line x1="250" y1="70" x2="250" y2="150" stroke="#FF6B00" stroke-width="4" transform="rotate(162.857 250 210)" />
    <line x1="250" y1="70" x2="250" y2="150" stroke="#FF6B00" stroke-width="4" transform="rotate(180.000 250 210)" />
    <line x1="250" y1="70" x2="250" y2="150" stroke="#FF6B00" stroke-width="4" transform="rotate(197.143 250 210)" />
    <line x1="250" y1="70" x2="250" y2="150" stroke="#FF6B00" stroke-width="4" transform="rotate(214.286 250 210)" />
    <line x1="250" y1="70" x2="250" y2="150" stroke="#FF6B00" stroke-width="4" transform="rotate(231.429 250 210)" />
    <line x1="250" y1="70" x2="250" y2="150" stroke="#FF6B00" stroke-width="4" transform="rotate(248.571 250 210)" />
    <line x1="250" y1="70" x2="250" y2="150" stroke="#FF6B00" stroke-width="4" transform="rotate(265.714 250 210)" />
    <line x1="250" y1="70" x2="250" y2="150" stroke="#FF6B00" stroke-width="4" transform="rotate(282.857 250 210)" />
    <line x1="250" y1="70" x2="250" y2="150" stroke="#FF6B00" stroke-width="4" transform="rotate(300.000 250 210)" />
    <line x1="250" y1="70" x2="250" y2="150" stroke="#FF6B00" stroke-width="4" transform="rotate(317.143 250 210)" />
    <line x1="250" y1="70" x2="250" y2="150" stroke="#FF6B00" stroke-width="4" transform="rotate(334.286 250 210)" />
    <line x1="250" y1="70" x2="250" y2="150" stroke="#FF6B00" stroke-width="4" transform="rotate(351.429 250 210)" />

    <path d="M 241.06 150.67 
             L 229.14 71.57 
             A 140 140 0 0 1 270.86 71.57 
             L 258.94 150.67 
             A 60 60 0 0 0 241.06 150.67 Z" 
          fill="#FF6B00" />
  </g>

  <g transform="translate(250, 210) scale(1.15)">
    <path fill="#FFFFFF" d="M-15,-22 L-15,22 L2,22 C15,22 23,16 23,7 C23,-1 16,-4 8,-5 C16,-6 20,-11 20,-17 C20,-22 15,-22 2,-22 Z" />
    <path fill="#0A1128" d="M-5,-17 L2,-17 C8,-17 11,-15 11,-11 C11,-7 8,-6 2,-6 L-5,-6 Z"/>
    <path fill="#0A1128" d="M-5,-2 L2,-2 C10,-2 13,0 13,6 C13,12 10,14 2,14 L-5,14 Z"/>
    <line x1="-5" y1="-30" x2="-5" y2="-22" stroke="#FFFFFF" stroke-width="4" stroke-linecap="round"/>
    <line x1="3" y1="-30" x2="3" y2="-22" stroke="#FFFFFF" stroke-width="4" stroke-linecap="round"/>
    <line x1="-5" y1="22" x2="-5" y2="30" stroke="#FFFFFF" stroke-width="4" stroke-linecap="round"/>
    <line x1="3" y1="22" x2="3" y2="30" stroke="#FFFFFF" stroke-width="4" stroke-linecap="round"/>
  </g>

  <text x="250" y="420" font-family="system-ui, -apple-system, sans-serif" font-weight="700" font-size="52" fill="#FFFFFF" text-anchor="middle" letter-spacing="1">SatLotto</text>

</svg>